<svg width="80" height="80" fill="none" xmlns="http://www.w3.org/2000/svg"><path d="M63.333 78.667v-72c0-.737-.597-1.334-1.333-1.334H41.252L40.49 0H27.51l-.762 5.333H6c-.736 0-1.333.597-1.333 1.334v72C4.667 79.403 5.264 80 6 80h56c.736 0 1.333-.597 1.333-1.333zm-34.8-66.996l1.29-9.004h8.354l1.287 9.004 7.87 2.624V16H20.666v-1.705l7.866-2.624zm26.8 1.662v48H44.667V72h-32V13.333H18v5.334h32v-5.334h5.333zM53.448 64l-6.115 6.115V64h6.115zm7.219 13.333H7.333V8h19.035l-.234 1.663-3.017 1.004H10v64h36.552L58 63.219V10.667H44.883l-3.017-1.004L41.633 8h19.035v69.333zm9.373-7.675a1.334 1.334 0 002.587 0l2.667-10.667c.01-.046 0-.091 0-.134.018-.062.03-.126.04-.19V9.333A1.335 1.335 0 0074 8h-5.333c-.737 0-1.334.597-1.334 1.333v49.334c.008.063.02.126.038.188.007.045-.008.09 0 .133l2.669 10.67zm2.627-12.325H70V18.667h2.667v38.666zm-1.334 6.503L70.374 60h1.918l-.959 3.836zM70 10.666h2.667V16H70v-5.333z" fill="#00A3FF"/><path d="M22 21.333h-5.333c-.737 0-1.334.597-1.334 1.334V28c0 .736.597 1.333 1.334 1.333H22c.736 0 1.333-.597 1.333-1.333v-5.333c0-.737-.597-1.334-1.333-1.334zm-1.333 5.334H18V24h2.667v2.667zM22 32h-5.333c-.737 0-1.334.597-1.334 1.333v5.334c0 .736.597 1.333 1.334 1.333H22c.736 0 1.333-.597 1.333-1.333v-5.334c0-.736-.597-1.333-1.333-1.333zm-1.333 5.333H18v-2.666h2.667v2.666zM22 42.667h-5.333c-.737 0-1.334.597-1.334 1.333v5.333c0 .737.597 1.334 1.334 1.334H22c.736 0 1.333-.597 1.333-1.334V44c0-.736-.597-1.333-1.333-1.333zM20.667 48H18v-2.667h2.667V48zM22 53.333h-5.333c-.737 0-1.334.597-1.334 1.334V60c0 .736.597 1.333 1.334 1.333H22c.736 0 1.333-.597 1.333-1.333v-5.333c0-.737-.597-1.334-1.333-1.334zm-1.333 5.334H18V56h2.667v2.667zM26 21.333h22.667V24H26v-2.667zm0 5.334h8v2.666h-8v-2.666zM26 32h22.667v2.667H26V32zm0 5.333h8V40h-8v-2.667zm0 5.334h22.667v2.666H26v-2.666zM26 48h8v2.667h-8V48zm0 5.333h22.667V56H26v-2.667zm0 5.334h8v2.666h-8v-2.666z" fill="#00A3FF"/></svg>