<svg width="80" height="80" fill="none" xmlns="http://www.w3.org/2000/svg"><g clip-path="url(#clip0)" fill="#00A3FF"><path d="M22.667 45.333h2.666V48h-2.666v-2.667zm5.333 0h2.666V48H28v-2.667zm5.333 0H36V48h-2.667v-2.667zm-10.666 5.334h2.666v2.666h-2.666v-2.666zm5.333 0h2.666v2.666H28v-2.666zm5.333 0H36v2.666h-2.667v-2.666zm5.333 0h2.667v2.666h-2.667v-2.666zm5.334 0h2.666v2.666H44v-2.666zM22.667 56h2.666v2.667h-2.666V56zM28 56h2.666v2.666H28V56zm5.333 0H36v2.666h-2.667V56zm5.333 0h2.667v2.666h-2.667V56zM44 56h2.666v2.666H44V56zm-21.333 5.333h2.666V64h-2.666v-2.667zm5.333 0h2.666V64H28v-2.667zm5.333 0H36V64h-2.667v-2.667zm5.333 0h2.667V64h-2.667v-2.667zm5.334 0h2.666V64H44v-2.667zm-21.334 5.333h2.667v2.667h-2.666v-2.666zm5.334 0h2.666v2.667H28v-2.666zm5.333 0H36v2.667h-2.667v-2.666zm5.333 0h2.667v2.667h-2.667v-2.666zm5.334 0h2.666v2.667H44v-2.666zM22.666 72h2.667v2.666h-2.666V72zM28 72h2.666v2.666H28V72zm5.333 0H36v2.666h-2.667V72zm5.333 0h2.667v2.666h-2.667V72zM44 72h2.666v2.666H44V72z"/><path d="M78.666 4h-9.333V1.334C69.333.597 68.736 0 67.999 0H54.666c-.736 0-1.333.597-1.333 1.334V4h-52C.597 4 0 4.597 0 5.334v5.333C0 11.404.597 12 1.333 12h4v25.333c0 .737.597 1.334 1.334 1.334A1.333 1.333 0 115.333 40H2.667a3.97 3.97 0 001.02 2.642L.267 47.2l.017.014c-.179.224-.278.5-.284.786v5.333c0 .355.14.693.39.943l2.667 2.667c.25.25.59.39.943.39h5.333c.354 0 .693-.14.943-.39l2.667-2.667c.25-.25.39-.589.39-.943V48a1.305 1.305 0 00-.284-.786l.017-.014-3.42-4.558A3.975 3.975 0 008 36.229V12h45.333v1.334c0 .737.597 1.333 1.333 1.333h2.667v62.666H52V24h-2.667v5.334h-8v-2.667h-2.667v2.666h-8V28H28v1.334h-8v-4h17.333v-2.667H20v-5.333h-2.667v60H15.22l-6.276-6.276a1.333 1.333 0 00-1.886 0L.781 77.333H0V80h80v-2.667h-1.04a3.963 3.963 0 00-1.92-6.511 4 4 0 10-7.414 0 3.963 3.963 0 00-1.92 6.511h-2.373V14.667h2.666c.737 0 1.334-.596 1.334-1.333V12h9.333c.736 0 1.333-.596 1.333-1.333V5.334A1.333 1.333 0 0078.666 4zM7.333 44l2 2.667H4L6 44h1.333zm3.334 8.782L8.78 54.667H4.552l-1.885-1.885v-3.449h8v3.449zM72.933 6.667l-3.6 2.4v-2.4h3.6zM56 2.667h5.333V8H56V2.667zM20 6.934l3.6 2.4h-7.2l3.6-2.4zm-8 2.133l-3.6-2.4h7.2l-3.6 2.4zm12.4-2.4h7.2l-3.6 2.4-3.6-2.4zm11.6.267l3.6 2.4h-7.2l3.6-2.4zm4.4-.267h7.2l-3.6 2.4-3.6-2.4zm-37.733 0H3.6l4 2.667H2.667V6.667zm45.732 2.667l4-2.667h.934v2.667h-4.934zm14.267 63.6l-2.4-3.6 2.4-3.6v7.2zm0-32l-2.4-3.6 2.4-3.6v7.2zm-2.666.8l2.4 3.6-2.4 3.6v-7.2zm0-8.8v-7.2l2.4 3.6-2.4 3.6zm0 24.8l2.4 3.6-2.4 3.6v-7.2zm2.666-.808l-2.4-3.593 2.4-3.6v7.193zm-2.4-35.593l2.4-3.599v7.2l-2.4-3.6zm-.266-4.4v-2.266h1.509l-1.51 2.267zM49.333 32v13.333h-8V32h8zm-10.667 0v11.467l-3.066-3.03a1.337 1.337 0 00-.934-.386h-4V32h8zM28 32v2.223h-8V32h8zM8 73.885l3.448 3.448H4.552L8 73.885zm12 3.448V36.89h8v4.5c0 .737.597 1.334 1.333 1.334h4.785l4.948 4.892c.249.246.584.384.934.385h9.333v29.333H20zm40-3.6l2.4 3.6H60v-3.6zM76 76a1.333 1.333 0 11-.001-2.666 1.333 1.333 0 010 2.666zm-2.667-8a1.333 1.333 0 110 2.667 1.333 1.333 0 010-2.667zm-2.667 5.333a1.333 1.333 0 110 2.667 1.333 1.333 0 010-2.667zm-4-61.333H56v-1.333h6.666c.737 0 1.334-.596 1.334-1.333V2.667h2.666V12zm7.067-2.666l3.6-2.4v2.4h-3.6z"/></g><defs><clipPath id="clip0"><path fill="#fff" d="M0 0h80v80H0z"/></clipPath></defs></svg>