<svg width="80" height="80" fill="none" xmlns="http://www.w3.org/2000/svg"><g clip-path="url(#clip0)"><path d="M70.9 33.112h-3.907v-3.306c0-5.972-1.911-11.632-5.527-16.367a27.23 27.23 0 00-12.53-9.11l-.37-2.35A2.344 2.344 0 0046.25 0h-12.5c-1.154 0-2.136.84-2.315 1.98l-.37 2.35a27.23 27.23 0 00-12.531 9.108c-3.616 4.736-5.527 10.395-5.527 16.368v3.306H9.1a2.344 2.344 0 00-2.344 2.344v9.375A2.344 2.344 0 009.1 47.174h1.485a29.737 29.737 0 00.56 11.294 2.344 2.344 0 002.276 1.784h5.311a22.846 22.846 0 002.945 5.084l-2.653 4.594a2.343 2.343 0 00.406 2.862 29.836 29.836 0 0012.29 7.115 2.344 2.344 0 002.684-1.079l2.655-4.599c1.947.25 3.935.25 5.882 0l2.655 4.6a2.343 2.343 0 002.683 1.078 29.84 29.84 0 0012.29-7.114 2.344 2.344 0 00.407-2.863l-2.653-4.594a22.851 22.851 0 002.945-5.084h5.311a2.344 2.344 0 002.276-1.784 29.742 29.742 0 00.56-11.294H70.9a2.344 2.344 0 002.344-2.343v-9.375a2.344 2.344 0 00-2.344-2.344zM11.444 37.8h3.906a2.344 2.344 0 002.344-2.344v-5.65c0-8.58 4.993-16.352 12.515-20.044l-1.9 12.06a2.344 2.344 0 004.631.73l2.813-17.864h8.494l2.813 17.864a2.344 2.344 0 104.63-.73l-1.899-12.06c7.522 3.692 12.515 11.464 12.515 20.044v5.65a2.344 2.344 0 002.344 2.343h3.906v4.688H11.444v-4.688zm34.42 13.567A5.87 5.87 0 0140 57.231a5.87 5.87 0 01-5.863-5.864c0-1.6.638-3.092 1.772-4.193h8.183a5.81 5.81 0 011.772 4.193zm19.163 0c0 1.408-.119 2.814-.354 4.197h-5.027a2.344 2.344 0 00-2.224 1.602 18.262 18.262 0 01-3.693 6.378 2.343 2.343 0 00-.278 2.728l2.513 4.352a25.19 25.19 0 01-7.262 4.208l-2.513-4.351a2.344 2.344 0 00-2.5-1.124 18.557 18.557 0 01-7.379 0 2.344 2.344 0 00-2.5 1.124l-2.51 4.351a25.178 25.178 0 01-7.263-4.208l2.513-4.352a2.344 2.344 0 00-.277-2.728 18.262 18.262 0 01-3.694-6.378 2.344 2.344 0 00-2.224-1.602h-5.027a25.092 25.092 0 01-.354-4.197c0-1.406.121-2.81.356-4.192h14.983a10.533 10.533 0 00-.863 4.193c0 5.817 4.733 10.55 10.551 10.55 5.818 0 10.55-4.733 10.55-10.55 0-1.472-.298-2.892-.862-4.194h14.983c.235 1.383.356 2.787.356 4.193z" fill="#00A3FF"/></g><defs><clipPath id="clip0"><path fill="#fff" d="M0 0h80v80H0z"/></clipPath></defs></svg>