<svg width="80" height="80" fill="none" xmlns="http://www.w3.org/2000/svg"><path d="M78.667.744H1.333C.597.744 0 1.341 0 2.077v53.334c0 .736.597 1.333 1.333 1.333H25.41c.04.444.106.882.184 1.315l-7.313 8.716a1.333 1.333 0 00.712 2.154l8.05 1.923 3.293 7.6a1.333 1.333 0 002.245.327l7.301-8.701h.238l7.301 8.7a1.333 1.333 0 002.245-.326l3.292-7.6 8.051-1.922a1.334 1.334 0 00.712-2.155l-7.313-8.716a14.8 14.8 0 00.184-1.315h24.076c.736 0 1.333-.597 1.333-1.333V2.077c0-.736-.597-1.333-1.333-1.333zM31.924 75.411l-2.7-6.227a1.333 1.333 0 00-.913-.766l-6.6-1.578 4.786-5.705c.026.059.059.112.084.17a13.51 13.51 0 00.836 1.623c.183.305.377.604.582.896.142.204.292.4.445.6a15.38 15.38 0 001.197 1.348c.164.164.334.323.507.479.144.133.273.273.424.4.15.127.292.212.436.324.065.05.121.11.188.159.12.09.247.169.37.255.191.134.38.278.58.4a13.5 13.5 0 001.165.667c.152.078.306.148.461.22.355.167.713.32 1.073.456.104.039.207.083.311.119.505.177 1.02.326 1.541.447l.015.004-4.788 5.709zm10.58-8.283c-.611.13-1.232.211-1.856.244h-.017c-.211.01-.422.025-.634.025-.212 0-.422-.014-.633-.025h-.017a12.178 12.178 0 01-1.852-.243l-.112-.022a11.317 11.317 0 01-.704-.183c-.098-.028-.196-.053-.292-.084-.167-.052-.331-.113-.495-.172-.164-.059-.32-.116-.477-.181a5.074 5.074 0 01-.29-.133 12.573 12.573 0 01-.648-.31l-.106-.058a12.07 12.07 0 01-1.574-1.006 11.442 11.442 0 01-.785-.66 11.782 11.782 0 01-.852-.841c-.107-.115-.221-.224-.323-.343a11.712 11.712 0 01-1.016-1.39c-.045-.073-.084-.149-.133-.223a11.675 11.675 0 01-.747-1.476c-.018-.045-.04-.09-.057-.133a11.983 11.983 0 01-.568-1.798c0-.024-.019-.042-.025-.066A12.06 12.06 0 0128 55.41c-.004-6.627 5.365-12.002 11.993-12.006C46.62 43.398 51.996 48.769 52 55.395c0 .898-.1 1.793-.299 2.668-.006.023-.02.043-.025.065a12.042 12.042 0 01-.567 1.796c-.018.047-.04.094-.06.134a11.6 11.6 0 01-.744 1.466c-.044.075-.084.154-.133.228a11.81 11.81 0 01-1.015 1.39c-.1.117-.213.224-.318.338-.273.298-.561.581-.863.85-.253.225-.505.453-.781.658a13.19 13.19 0 01-.792.551l-.016.01c-.242.153-.488.294-.739.427-.05.027-.097.055-.147.08-.201.106-.4.2-.612.292-.106.048-.212.098-.32.142-.149.062-.301.117-.453.172-.152.054-.34.125-.513.178-.092.03-.186.055-.279.082-.236.066-.473.133-.713.184l-.107.021zm15.785-.292l-6.6 1.578a1.333 1.333 0 00-.913.766l-2.7 6.23-4.788-5.704h.012c.524-.12 1.04-.27 1.547-.449.1-.034.196-.076.296-.112.372-.14.738-.295 1.098-.468.147-.068.294-.133.438-.208.4-.207.8-.433 1.184-.68.185-.117.362-.249.542-.376.134-.091.267-.175.4-.273.071-.053.134-.116.203-.17.133-.11.288-.202.424-.317.136-.114.275-.266.416-.392.176-.16.35-.32.517-.487a15.315 15.315 0 001.195-1.344c.153-.197.303-.4.445-.6a13.254 13.254 0 00.847-1.363 13.7 13.7 0 00.567-1.154c.024-.068.058-.122.084-.182l4.786 5.705zm19.044-12.758H54.6c-.724-8.064-7.847-14.014-15.91-13.29a14.659 14.659 0 00-13.29 13.29H2.667V3.41h74.666v50.666z" fill="#DA3636"/><path d="M6.667 6.078c-.737 0-1.334.597-1.334 1.333v5.333H8v-4h4V6.078H6.667zm66.666 0H68v2.666h4v4h2.667V7.411c0-.737-.597-1.333-1.334-1.333zM72 44.744v4h-4v2.667h5.333c.737 0 1.334-.597 1.334-1.334v-5.333H72zm-64 4v-4H5.333v5.334c0 .736.597 1.333 1.334 1.333H12v-2.667H8zM56 15.41H24v2.668h32V15.41zm8 8H16v2.668h48V23.41zM40 46.078a9.333 9.333 0 00-9.333 9.333A9.344 9.344 0 0040 64.744a9.333 9.333 0 100-18.666zm0 16a6.667 6.667 0 01-6.667-6.667A6.675 6.675 0 0140 48.744a6.667 6.667 0 010 13.334z" fill="#DA3636"/></svg>