<svg width="65" height="65" fill="none" xmlns="http://www.w3.org/2000/svg"><g clip-path="url(#clip0)" fill="#00A3FF"><path d="M12.17 17.668a5.577 5.577 0 10-5.576-5.577 5.583 5.583 0 005.576 5.577zm0-8.99a3.413 3.413 0 11.001 6.826 3.413 3.413 0 010-6.825z"/><path d="M60.69 48.066l-.417-10.917 2.036-2.8-2.47-4.539.497-1.525L65 26.065v-4.52l-4.664-2.221-.496-1.526 2.469-4.538-2.658-3.655-5.079.945-1.298-.944-.67-5.121-4.296-1.397-3.554 3.75H43.15l-3.555-3.75-4.297 1.397-.21 1.597-15.027-.895-1.013-1.013-.28-2.272L14.712.217l-1.807 1.411H11.44L9.63.217 5.57 1.9l-.279 2.272-1.039 1.039-2.272.28L.295 9.55l1.415 1.81v1.468L.295 14.633l1.341 3.235L.143 37.01a6.24 6.24 0 00-.058.735v.04H.08v.085a6.483 6.483 0 009.113 5.934l6.403-2.668a6.45 6.45 0 002.853 7.739l-9.891 3.187a6.492 6.492 0 001.26 12.858h.057l39.843-2.09.61 1.463 3.44.706 2.793-2.713.711-.235 3.862.497 2.332-2.627-.954-3.775.152-.735 2.36-3.095-1.105-3.333-3.227-.918zM37.267 6.12l1.699-.552 3.254 3.433h3.463l3.254-3.433 1.7.552.614 4.69 2.802 2.037 4.653-.866 1.048 1.445-2.259 4.157 1.071 3.294 4.271 2.035v1.785l-4.27 2.034-1.072 3.295 2.26 4.156-1.05 1.444-4.652-.865-2.802 2.036-.614 4.69-1.7.553-3.254-3.434H42.22l-3.254 3.434-1.7-.553-.614-4.688-2.802-2.037-4.653.865-1.05-1.444 2.26-4.155-1.07-3.296-4.271-2.034v-1.785l4.27-2.035 1.07-3.295-2.259-4.155 1.05-1.445 4.653.866 2.802-2.04.614-4.69zM2.784 9.214l.714-1.732 1.763-.216 2.09-2.087.217-1.763 1.731-.714 1.399 1.092h2.96l1.392-1.089 1.731.714.216 1.762 2.085 2.09 1.763.216.715 1.732-1.093 1.399v2.959l1.093 1.399-.715 1.731-1.762.217-2.091 2.09-.217 1.763-1.73.715-1.4-1.093h-2.953l-1.4 1.093-1.73-.715-.217-1.762-2.089-2.102-1.761-.216-.714-1.732 1.093-1.399v-2.954l-1.09-1.398zm-.54 28.676l.012-.169a4.087 4.087 0 11-.013.17zm19.475 1.063a4.328 4.328 0 110 8.656 4.328 4.328 0 010-8.656zM5.49 58.429a4.327 4.327 0 012.508-3.914l1.046-.337a4.324 4.324 0 014.638 6.16 4.324 4.324 0 01-3.824 2.419h-.053a4.328 4.328 0 01-4.315-4.328zm9.385 4.06a6.473 6.473 0 00-1.73-9.63L23.71 49.46a6.492 6.492 0 10-4.436-12.188l-6.574 2.74a6.48 6.48 0 00-10.045-7.298l1.082-13.805.525.065 1.039 1.04.28 2.271 4.058 1.68 1.807-1.407h1.468l1.806 1.407 4.047-1.675.28-2.273 1.038-1.038 2.273-.28 1.68-4.057-1.408-1.806V11.36l1.407-1.807-.83-2.008 11.604.687-.18 1.374-1.298.943-5.078-.945-2.658 3.655 2.468 4.538-.494 1.522-4.665 2.224v4.52l4.664 2.221.495 1.525-2.468 4.539 2.658 3.655 5.078-.945 1.298.943.67 5.122L39.6 44.52l3.554-3.75h1.604l3.554 3.75 4.297-1.397.67-5.121 1.299-.944 3.557.662.26 6.77-.277-.66-3.441-.708-2.8 2.711-.71.237-3.862-.497-2.332 2.627.951 3.775-.151.734-2.362 3.095 1.11 3.333 3.744 1.066.562.497v.008l-33.953 1.78zm45.77-7.997l-.35 1.704.792 3.145-.812.914-3.217-.412-1.65.548-2.326 2.258-1.198-.245-1.25-2.992-1.297-1.155-3.12-.887-.387-1.163 1.967-2.578.35-1.702-.794-3.145.813-.916 3.217.414 1.65-.548 2.328-2.26 1.198.247 1.25 2.995 1.298 1.152 3.12.886.386 1.162-1.968 2.578z"/><path d="M8.735 37.87a2.164 2.164 0 11-4.328 0 2.164 2.164 0 014.328 0zm15.149 5.41a2.164 2.164 0 11-4.329 0 2.164 2.164 0 014.329 0zM11.981 58.429a2.164 2.164 0 11-4.328 0 2.164 2.164 0 014.328 0zM54.18 48.69a5.41 5.41 0 105.41 5.41 5.417 5.417 0 00-5.41-5.41zm0 8.657a3.246 3.246 0 110-6.493 3.246 3.246 0 010 6.493zM43.36 34.625c5.976 0 10.82-4.845 10.82-10.82 0-5.977-4.844-10.82-10.82-10.82s-10.82 4.843-10.82 10.82c.006 5.973 4.846 10.813 10.82 10.82zm0-19.477a8.656 8.656 0 11-8.656 8.656 8.666 8.666 0 018.656-8.656z"/><path d="M43.36 30.297a6.492 6.492 0 10-6.492-6.493 6.499 6.499 0 006.492 6.493zm0-10.82a4.328 4.328 0 110 8.656 4.328 4.328 0 010-8.657zM58.508 3.246a3.246 3.246 0 106.493 0 3.246 3.246 0 00-6.493 0zm4.328 0a1.082 1.082 0 11-2.164 0 1.082 1.082 0 012.164 0zm-32.46-1.082a2.164 2.164 0 11-4.329 0 2.164 2.164 0 014.329 0z"/></g><defs><clipPath id="clip0"><path fill="#fff" d="M0 0h65v65H0z"/></clipPath></defs></svg>