<svg width="65" height="65" fill="none" xmlns="http://www.w3.org/2000/svg"><g clip-path="url(#clip0)" fill="#DA3636"><path d="M42.065.448a1.125 1.125 0 00-1.797 0l-3.435 5.097L33.398.453a1.125 1.125 0 00-1.797 0l-3.435 5.092L24.731.453a1.125 1.125 0 00-1.796 0L3.856 28.761A22.466 22.466 0 000 41.36v.572a22.438 22.438 0 006.724 16.06 22.805 22.805 0 008.166 5.2l.892.332a22.994 22.994 0 0012.384 1.028c2.863.557 5.805.557 8.667 0 4.145.801 8.43.446 12.386-1.026l.891-.331a22.8 22.8 0 008.166-5.2A22.44 22.44 0 0065 41.931v-.572c.002-4.49-1.34-8.88-3.857-12.6L42.065.449zM15.643 61.163a20.665 20.665 0 01-7.396-4.711 20.285 20.285 0 01-6.08-14.52v-.572a20.311 20.311 0 013.485-11.39l18.18-26.979 3.027 4.492L12.523 28.76a22.466 22.466 0 00-3.857 12.6v.572a22.438 22.438 0 006.725 16.06 22.758 22.758 0 007.15 4.767 20.996 20.996 0 01-6.004-1.26l-.894-.336zm9.558.332l-.891-.332a20.665 20.665 0 01-7.396-4.711 20.285 20.285 0 01-6.08-14.52v-.572a20.312 20.312 0 013.486-11.39L32.5 2.992l18.18 26.976a20.318 20.318 0 013.486 11.392v.572a20.289 20.289 0 01-6.08 14.517 20.672 20.672 0 01-7.396 4.711l-.892.331a20.997 20.997 0 01-14.597.004zm37.632-19.563a20.288 20.288 0 01-6.08 14.517 20.671 20.671 0 01-7.397 4.711l-.891.331a21 21 0 01-5.998 1.265 22.752 22.752 0 007.15-4.767 22.438 22.438 0 006.716-16.057v-.572a22.46 22.46 0 00-3.857-12.6L38.14 7.485l3.026-4.492 18.181 26.976a20.317 20.317 0 013.486 11.392v.572z"/><path d="M48.75 47.574V35.421a5.446 5.446 0 00-2.613-4.634l-10.834-6.554a5.4 5.4 0 00-5.606 0l-10.834 6.554a5.446 5.446 0 00-2.613 4.634v12.153a5.447 5.447 0 002.613 4.634l10.834 6.554a5.402 5.402 0 005.607 0l10.833-6.554a5.447 5.447 0 002.613-4.634zm-3.734 2.78L34.183 56.91a3.243 3.243 0 01-3.365 0l-10.834-6.554a3.269 3.269 0 01-1.567-2.78V35.42a3.269 3.269 0 011.567-2.78l10.834-6.554a3.238 3.238 0 013.365 0l10.833 6.553a3.27 3.27 0 011.567 2.781v12.153a3.27 3.27 0 01-1.567 2.78z"/><path d="M42.326 33.547l-7.584-4.588a4.315 4.315 0 00-4.484 0l-7.584 4.588a4.354 4.354 0 00-2.09 3.707v8.488a4.354 4.354 0 002.09 3.707l7.584 4.588a4.321 4.321 0 004.484 0l7.584-4.588a4.354 4.354 0 002.09-3.707v-8.488a4.354 4.354 0 00-2.09-3.707zm-.076 12.195a2.18 2.18 0 01-1.045 1.854l-7.584 4.588a2.167 2.167 0 01-2.242 0l-7.584-4.588a2.18 2.18 0 01-1.045-1.854v-8.488a2.18 2.18 0 011.045-1.854l7.584-4.587a2.158 2.158 0 012.242 0l7.584 4.587a2.18 2.18 0 011.045 1.854v8.488z"/><path d="M31.417 33.553h2.166V48.72h-2.166V33.553zm3.25 1.083v2.167c.598 0 1.083.485 1.083 1.084h2.167a3.25 3.25 0 00-3.25-3.25zm-7.584 3.25v1.084a3.25 3.25 0 003.25 3.25v-2.167a1.083 1.083 0 01-1.083-1.083v-1.084c0-.598.485-1.083 1.083-1.083v-2.166a3.25 3.25 0 00-3.25 3.25zm7.584 2.167v2.167c.598 0 1.083.485 1.083 1.083v1.084c0 .598-.485 1.083-1.083 1.083v2.166a3.25 3.25 0 003.25-3.25v-1.083a3.25 3.25 0 00-3.25-3.25zm-5.417 4.333h-2.167a3.25 3.25 0 003.25 3.25V45.47a1.083 1.083 0 01-1.083-1.084z"/></g><defs><clipPath id="clip0"><path fill="#fff" d="M0 0h65v65H0z"/></clipPath></defs></svg>