<svg width="65" height="65" fill="none" xmlns="http://www.w3.org/2000/svg"><g clip-path="url(#clip0)" fill="#00A3FF"><path d="M3.25 0c-.598 0-1.083.485-1.083 1.083v17.334c0 .598.485 1.083 1.083 1.083h17.333c.599 0 1.084-.485 1.084-1.083V1.083C21.667.485 21.182 0 20.583 0H3.25zM19.5 17.333H4.333V2.167H19.5v15.166z"/><path d="M8.667 6.5h2.166V13H8.667V6.5zM13 6.5h2.167V13H13V6.5zM53.083 65H65v-2.167H53.906c-1.978-7.306-3.016-19.269-3.557-29.331 8.31-.83 14.641-7.818 14.651-16.169 0-.598-.485-1.083-1.083-1.083a16.24 16.24 0 00-13.962 7.979 454.58 454.58 0 01-.122-4.442v-2.509A11.928 11.928 0 0060.667 5.417c0-.599-.485-1.084-1.084-1.084a11.917 11.917 0 00-10.351 6.035 11.932 11.932 0 00-11.315-8.201c-.599 0-1.084.485-1.084 1.083a11.93 11.93 0 0010.81 11.86 647.243 647.243 0 01-.464 13.33 18.56 18.56 0 00-3.846-4.54v-.067h-.073A18.322 18.322 0 0031.417 19.5c-.599 0-1.084.485-1.084 1.083a18.29 18.29 0 002.167 8.649v.018h.008a18.445 18.445 0 0014.084 9.614c-.386 5.741-.9 11.523-1.58 16.386H4.332a2.167 2.167 0 010-4.333H32.5a4.334 4.334 0 000-8.667H14.083A1.083 1.083 0 0113 41.167v-4.334h2.167a3.25 3.25 0 003.25-3.25v-6.5c0-.598-.485-1.083-1.084-1.083h-2.166v-4.333H13V26h-2.167v-4.333H8.667V26H6.5c-.598 0-1.083.485-1.083 1.083v6.5a3.25 3.25 0 003.25 3.25h2.166v4.334a3.25 3.25 0 003.25 3.25H32.5a2.167 2.167 0 010 4.333H4.333a4.334 4.334 0 000 8.667h40.36c-.331 2.058-.698 3.886-1.103 5.416H0V65h53.083zm-45.5-31.417v-5.416h8.667v5.416c0 .599-.485 1.084-1.083 1.084h-6.5a1.083 1.083 0 01-1.084-1.084zm44.105-2.491l4.008-4.009h3.193a14.066 14.066 0 01-7.201 4.009zm2.479-8.733a14.052 14.052 0 016.812-3.618l-6.812 6.81V22.36zm8.341-2.089a14.004 14.004 0 01-1.91 4.647h-2.733l4.643-4.647zM52 25.025v2.693l-1.842 1.842A13.966 13.966 0 0152 25.025zm6.432-18.457A9.767 9.767 0 0149.9 15.1a9.767 9.767 0 018.532-8.532zM39.067 4.402a9.766 9.766 0 018.531 8.53 9.77 9.77 0 01-8.53-8.53zm7.876 28.769l-.073 1.333-3.537-3.536v-4.066a16.227 16.227 0 013.61 6.269zM34.298 21.933a16.16 16.16 0 016.869 3.01V28.8l-6.869-6.868zm2.087 5.15H33.87a16.106 16.106 0 01-1.104-3.619l3.619 3.62zm-1.358 2.167h3.524l7.317 7.317a16.269 16.269 0 01-10.84-7.317zm13.62 11.562c.6 8.005 1.542 16.265 3.016 22.021h-5.832c1.311-5.296 2.207-13.553 2.816-22.02z"/></g><defs><clipPath id="clip0"><path fill="#fff" d="M0 0h65v65H0z"/></clipPath></defs></svg>